<?xml version="1.0" encoding="UTF-8" standalone="no"?> <svg height="558pt" viewBox="-17 -42 558.66688 558" width="558pt" xmlns="http://www.w3.org/2000/svg"><path style="fill:#ffffff;" d="m512.5 71.167969h-375c-3.429688 0-6.671875 1.5625-8.804688 4.242187-2.132812 2.683594-2.929687 6.195313-2.15625 9.535156l44.816407 194.375c.046875.1875.09375.371094.148437.5625 4.492188 15.527344 18.6875 26.234376 34.851563 26.285157h237.285156c16.167969-.050781 30.367187-10.757813 34.859375-26.289063.054688-.191406.101562-.378906.148438-.566406l44.8125-194.367188c.773437-3.339843-.023438-6.851562-2.15625-9.535156-2.136719-2.679687-5.378907-4.242187-8.804688-4.242187zm-14.140625 22.5-12.109375 52.5h-321.25c-.414062 0-.824219.023437-1.234375.070312l-12.125-52.570312zm-41.566406 180.261719c-1.785157 5.773437-7.109375 9.71875-13.152344 9.738281h-237.285156c-6.039063-.019531-11.367188-3.964844-13.148438-9.738281l-24.273437-105.261719h312.128906zm0 0"/><path style="fill:#ffffff;" d="m466.25 323.667969h-278.460938c-17.742187.019531-33.222656-12.027344-37.566406-29.234375l-56.027344-249.113282c-.019531-.085937-.039062-.167968-.066406-.257812-6.785156-27.285156-31.300781-46.429688-59.417968-46.394531h-23.460938c-6.210938 0-11.25 5.039062-11.25 11.25 0 6.210937 5.039062 11.25 11.25 11.25h23.460938c17.738281-.019531 33.222656 12.03125 37.5625 29.230469l56.03125 249.113281c.019531.085937.039062.171875.0625.257812 6.789062 27.285157 31.304687 46.429688 59.421874 46.398438h278.460938c6.210938 0 11.25-5.039063 11.25-11.25 0-6.210938-5.039062-11.25-11.25-11.25zm0 0"/><path style="fill:#ffffff;" d="m428.75 376.167969c-22.578125.027343-42.1875 15.535156-47.425781 37.5h-92.648438c-5.707031-24.070313-28.535156-40.046875-53.101562-37.167969-24.5625 2.871094-43.085938 23.683594-43.085938 48.417969 0 24.730469 18.523438 45.546875 43.085938 48.417969 24.566406 2.875 47.394531-13.101563 53.101562-37.167969h92.648438c5.878906 24.769531 29.824219 40.847656 54.972656 36.914062 25.152344-3.941406 43.042969-26.570312 41.066406-51.949219-1.976562-25.386718-23.15625-44.972656-48.613281-44.964843zm-187.5 75c-14.496094 0-26.25-11.753907-26.25-26.25 0-14.5 11.753906-26.25 26.25-26.25s26.25 11.75 26.25 26.25c-.015625 14.492187-11.757812 26.234375-26.25 26.25zm187.5 0c-14.496094 0-26.25-11.753907-26.25-26.25 0-14.5 11.753906-26.25 26.25-26.25s26.25 11.75 26.25 26.25c-.015625 14.492187-11.757812 26.234375-26.25 26.25zm0 0"/></svg>